<?xml version="1.0" encoding="UTF-8" standalone="no"?>
<!-- Created with Inkscape (http://www.inkscape.org/) -->

<svg
   width="39.999977"
   height="39.999977"
   viewBox="0 0 10.583327 10.583327"
   version="1.1"
   id="svg2086"
   inkscape:version="1.2.2 (b0a8486541, 2022-12-01)"
   sodipodi:docname="light.svg"
   xmlns:inkscape="http://www.inkscape.org/namespaces/inkscape"
   xmlns:sodipodi="http://sodipodi.sourceforge.net/DTD/sodipodi-0.dtd"
   xmlns="http://www.w3.org/2000/svg"
   xmlns:svg="http://www.w3.org/2000/svg">
  <sodipodi:namedview
     id="namedview2088"
     pagecolor="#505050"
     bordercolor="#eeeeee"
     borderopacity="1"
     inkscape:showpageshadow="0"
     inkscape:pageopacity="0"
     inkscape:pagecheckerboard="0"
     inkscape:deskcolor="#505050"
     inkscape:document-units="px"
     showgrid="false"
     inkscape:zoom="10.59046"
     inkscape:cx="22.945179"
     inkscape:cy="20.018016"
     inkscape:window-width="1920"
     inkscape:window-height="1050"
     inkscape:window-x="0"
     inkscape:window-y="0"
     inkscape:window-maximized="1"
     inkscape:current-layer="layer1" />
  <defs
     id="defs2083">
    <inkscape:path-effect
       effect="fillet_chamfer"
       id="path-effect1326"
       is_visible="true"
       lpeversion="1"
       nodesatellites_param="F,0,0,1,0,0.79375,0,1 @ F,0,0,1,0,0.79375,0,1 @ F,0,0,1,0,0.79375,0,1 @ F,0,0,1,0,0.79375,0,1"
       unit="px"
       method="auto"
       mode="F"
       radius="3"
       chamfer_steps="1"
       flexible="false"
       use_knot_distance="true"
       apply_no_radius="true"
       apply_with_radius="true"
       only_selected="false"
       hide_knots="false" />
    <inkscape:path-effect
       effect="fillet_chamfer"
       id="path-effect1340"
       is_visible="true"
       lpeversion="1"
       nodesatellites_param="F,0,0,1,0,0.79375,0,1 @ F,0,0,1,0,0.79375,0,1 @ F,0,0,1,0,0.79375,0,1 @ F,0,0,1,0,0.79375,0,1"
       unit="px"
       method="auto"
       mode="F"
       radius="3"
       chamfer_steps="1"
       flexible="false"
       use_knot_distance="true"
       apply_no_radius="true"
       apply_with_radius="true"
       only_selected="false"
       hide_knots="false" />
    <inkscape:path-effect
       effect="fillet_chamfer"
       id="path-effect1348"
       is_visible="true"
       lpeversion="1"
       nodesatellites_param="F,0,0,1,0,0.79375,0,1 @ F,0,0,1,0,0.79375,0,1 @ F,0,0,1,0,0.79375,0,1 @ F,0,0,1,0,0.79375,0,1"
       unit="px"
       method="auto"
       mode="F"
       radius="3"
       chamfer_steps="1"
       flexible="false"
       use_knot_distance="true"
       apply_no_radius="true"
       apply_with_radius="true"
       only_selected="false"
       hide_knots="false" />
    <inkscape:path-effect
       effect="fillet_chamfer"
       id="path-effect1352"
       is_visible="true"
       lpeversion="1"
       nodesatellites_param="F,0,0,1,0,0.79375,0,1 @ F,0,0,1,0,0.79375,0,1 @ F,0,0,1,0,0.79375,0,1 @ F,0,0,1,0,0.79375,0,1"
       unit="px"
       method="auto"
       mode="F"
       radius="3"
       chamfer_steps="1"
       flexible="false"
       use_knot_distance="true"
       apply_no_radius="true"
       apply_with_radius="true"
       only_selected="false"
       hide_knots="false" />
    <inkscape:path-effect
       effect="fillet_chamfer"
       id="path-effect1364"
       is_visible="true"
       lpeversion="1"
       nodesatellites_param="F,0,0,1,0,0.79375,0,1 @ F,0,0,1,0,0.79375,0,1 @ F,0,0,1,0,0.79375,0,1 @ F,0,0,1,0,0.79375,0,1"
       unit="px"
       method="auto"
       mode="F"
       radius="3"
       chamfer_steps="1"
       flexible="false"
       use_knot_distance="true"
       apply_no_radius="true"
       apply_with_radius="true"
       only_selected="false"
       hide_knots="false" />
    <inkscape:path-effect
       effect="fillet_chamfer"
       id="path-effect1368"
       is_visible="true"
       lpeversion="1"
       nodesatellites_param="F,0,0,1,0,0.79375,0,1 @ F,0,0,1,0,0.79375,0,1 @ F,0,0,1,0,0.79375,0,1 @ F,0,0,1,0,0.79375,0,1"
       unit="px"
       method="auto"
       mode="F"
       radius="3"
       chamfer_steps="1"
       flexible="false"
       use_knot_distance="true"
       apply_no_radius="true"
       apply_with_radius="true"
       only_selected="false"
       hide_knots="false" />
    <inkscape:path-effect
       effect="fillet_chamfer"
       id="path-effect1372"
       is_visible="true"
       lpeversion="1"
       nodesatellites_param="F,0,0,1,0,0.79375,0,1 @ F,0,0,1,0,0.79375,0,1 @ F,0,0,1,0,0.79375,0,1 @ F,0,0,1,0,0.79375,0,1"
       unit="px"
       method="auto"
       mode="F"
       radius="3"
       chamfer_steps="1"
       flexible="false"
       use_knot_distance="true"
       apply_no_radius="true"
       apply_with_radius="true"
       only_selected="false"
       hide_knots="false" />
    <inkscape:path-effect
       effect="fillet_chamfer"
       id="path-effect1376"
       is_visible="true"
       lpeversion="1"
       nodesatellites_param="F,0,0,1,0,0.79375,0,1 @ F,0,0,1,0,0.79375,0,1 @ F,0,0,1,0,0.79375,0,1 @ F,0,0,1,0,0.79375,0,1"
       unit="px"
       method="auto"
       mode="F"
       radius="3"
       chamfer_steps="1"
       flexible="false"
       use_knot_distance="true"
       apply_no_radius="true"
       apply_with_radius="true"
       only_selected="false"
       hide_knots="false" />
  </defs>
  <g
     inkscape:label="Layer 1"
     inkscape:groupmode="layer"
     id="layer1"
     transform="translate(86.437015,-25.087879)">
    <g
       id="g1387"
       transform="translate(-133.1692,-7.8608792)">
      <ellipse
         style="fill:#000000;fill-opacity:1;stroke-width:1;stroke-linecap:round;stroke-linejoin:round;paint-order:stroke fill markers"
         id="path1164"
         cx="52.023849"
         cy="38.240421"
         rx="2.6458335"
         ry="2.6458352" />
      <path
         style="fill:#000000;fill-opacity:1;stroke:none;stroke-width:1.21035;stroke-linecap:round;stroke-linejoin:round;paint-order:stroke fill markers"
         id="path1322"
         width="1.9843706"
         height="1.5875"
         x="55.331142"
         y="37.446671"
         inkscape:path-effect="#path-effect1326"
         d="m 56.124892,37.446671 h 0.396871 a 0.79375,0.79375 45 0 1 0.79375,0.79375 0.79374999,0.79374999 135 0 1 -0.79375,0.79375 h -0.396871 a 0.79375,0.79375 45 0 1 -0.79375,-0.79375 0.79374999,0.79374999 135 0 1 0.79375,-0.79375 z"
         sodipodi:type="rect" />
      <path
         style="fill:#000000;fill-opacity:1;stroke:none;stroke-width:1.21035;stroke-linecap:round;stroke-linejoin:round;paint-order:stroke fill markers"
         id="path1336"
         width="1.9843706"
         height="1.5875"
         x="46.732185"
         y="37.446671"
         inkscape:path-effect="#path-effect1340"
         d="m 47.525935,37.446671 h 0.396871 a 0.79375,0.79375 45 0 1 0.79375,0.79375 0.79374999,0.79374999 135 0 1 -0.79375,0.79375 h -0.396871 a 0.79375,0.79375 45 0 1 -0.79375,-0.79375 0.79374999,0.79374999 135 0 1 0.79375,-0.79375 z"
         sodipodi:type="rect" />
      <path
         style="fill:#000000;fill-opacity:1;stroke:none;stroke-width:1.21035;stroke-linecap:round;stroke-linejoin:round;paint-order:stroke fill markers"
         id="path1342"
         width="1.9843706"
         height="1.5875"
         x="-34.933128"
         y="51.230099"
         inkscape:path-effect="#path-effect1348"
         d="m -34.139378,51.230099 h 0.39687 a 0.79375,0.79375 45 0 1 0.79375,0.79375 0.79374999,0.79374999 135 0 1 -0.79375,0.79375 h -0.39687 a 0.79375,0.79375 45 0 1 -0.79375,-0.79375 0.79374999,0.79374999 135 0 1 0.79375,-0.79375 z"
         sodipodi:type="rect"
         transform="rotate(-90)" />
      <path
         style="fill:#000000;fill-opacity:1;stroke:none;stroke-width:1.21035;stroke-linecap:round;stroke-linejoin:round;paint-order:stroke fill markers"
         id="path1344"
         width="1.9843706"
         height="1.5875"
         x="-43.532085"
         y="51.230099"
         inkscape:path-effect="#path-effect1352"
         d="m -42.738335,51.230099 h 0.39687 a 0.79375,0.79375 45 0 1 0.79375,0.79375 0.79374999,0.79374999 135 0 1 -0.79375,0.79375 h -0.39687 a 0.79375,0.79375 45 0 1 -0.79375,-0.79375 0.79374999,0.79374999 135 0 1 0.79375,-0.79375 z"
         sodipodi:type="rect"
         transform="rotate(-90)" />
      <path
         style="fill:#000000;fill-opacity:1;stroke:none;stroke-width:1.21035;stroke-linecap:round;stroke-linejoin:round;paint-order:stroke fill markers"
         id="path1354"
         width="1.9843706"
         height="1.5875"
         x="13.053648"
         y="63.032726"
         inkscape:path-effect="#path-effect1364"
         d="m 13.847398,63.032726 h 0.396871 a 0.79375,0.79375 45 0 1 0.79375,0.79375 0.79374999,0.79374999 135 0 1 -0.79375,0.79375 h -0.396871 a 0.79375,0.79375 45 0 1 -0.79375,-0.79375 0.79374999,0.79374999 135 0 1 0.79375,-0.79375 z"
         sodipodi:type="rect"
         transform="rotate(-45)" />
      <path
         style="fill:#000000;fill-opacity:1;stroke:none;stroke-width:1.21035;stroke-linecap:round;stroke-linejoin:round;paint-order:stroke fill markers"
         id="path1356"
         width="1.9843706"
         height="1.5875"
         x="4.4546914"
         y="63.032726"
         inkscape:path-effect="#path-effect1368"
         d="M 5.2484414,63.032726 H 5.645312 a 0.79375,0.79375 45 0 1 0.79375,0.79375 0.79374999,0.79374999 135 0 1 -0.79375,0.79375 H 5.2484414 a 0.79375,0.79375 45 0 1 -0.79375,-0.79375 0.79374999,0.79374999 135 0 1 0.79375,-0.79375 z"
         sodipodi:type="rect"
         transform="rotate(-45)" />
      <path
         style="fill:#000000;fill-opacity:1;stroke:none;stroke-width:1.21035;stroke-linecap:round;stroke-linejoin:round;paint-order:stroke fill markers"
         id="path1358"
         width="1.9843706"
         height="1.5875"
         x="-60.519184"
         y="8.9526043"
         inkscape:path-effect="#path-effect1372"
         d="m -59.725434,8.9526043 h 0.39687 a 0.79375,0.79375 45 0 1 0.79375,0.79375 0.79374999,0.79374999 135 0 1 -0.79375,0.7937497 h -0.39687 a 0.79375,0.79375 45 0 1 -0.79375,-0.7937497 0.79374999,0.79374999 135 0 1 0.79375,-0.79375 z"
         sodipodi:type="rect"
         transform="rotate(-135)" />
      <path
         style="fill:#000000;fill-opacity:1;stroke:none;stroke-width:1.21035;stroke-linecap:round;stroke-linejoin:round;paint-order:stroke fill markers"
         id="path1360"
         width="1.9843706"
         height="1.5875"
         x="-69.118141"
         y="8.9526043"
         inkscape:path-effect="#path-effect1376"
         d="m -68.324391,8.9526043 h 0.39687 a 0.79375,0.79375 45 0 1 0.79375,0.79375 0.79374999,0.79374999 135 0 1 -0.79375,0.7937497 h -0.39687 a 0.79375,0.79375 45 0 1 -0.79375,-0.7937497 0.79374999,0.79374999 135 0 1 0.79375,-0.79375 z"
         sodipodi:type="rect"
         transform="rotate(-135)" />
    </g>
  </g>
</svg>
