<?xml version="1.0" encoding="UTF-8" standalone="no"?>
<!-- Created with Inkscape (http://www.inkscape.org/) -->

<svg
   width="40"
   height="40"
   viewBox="0 0 10.583333 10.583333"
   version="1.1"
   id="svg621"
   inkscape:version="1.2.2 (b0a8486541, 2022-12-01)"
   sodipodi:docname="maximize.svg"
   xmlns:inkscape="http://www.inkscape.org/namespaces/inkscape"
   xmlns:sodipodi="http://sodipodi.sourceforge.net/DTD/sodipodi-0.dtd"
   xmlns="http://www.w3.org/2000/svg"
   xmlns:svg="http://www.w3.org/2000/svg">
  <sodipodi:namedview
     id="namedview623"
     pagecolor="#505050"
     bordercolor="#eeeeee"
     borderopacity="1"
     inkscape:showpageshadow="0"
     inkscape:pageopacity="0"
     inkscape:pagecheckerboard="0"
     inkscape:deskcolor="#505050"
     inkscape:document-units="px"
     showgrid="false"
     inkscape:zoom="10.59046"
     inkscape:cx="17.374127"
     inkscape:cy="20.678988"
     inkscape:window-width="1920"
     inkscape:window-height="1050"
     inkscape:window-x="0"
     inkscape:window-y="0"
     inkscape:window-maximized="1"
     inkscape:current-layer="layer1" />
  <defs
     id="defs618" />
  <g
     inkscape:label="Layer 1"
     inkscape:groupmode="layer"
     id="layer1">
    <path
       id="path530"
       style="fill:#000000;fill-opacity:1;stroke:none;stroke-width:1.08111;stroke-linecap:round;stroke-linejoin:round;paint-order:stroke fill markers"
       d="M 1.0917338,0.6614575 C 0.4887858,0.6614575 0,1.1502435 0,1.7531915 v 7.07695 c 0,0.602948 0.4887858,1.091734 1.0917338,1.091734 h 8.3998639 c 0.6029483,0 1.0917353,-0.488786 1.0917353,-1.091734 v -7.07695 c 0,-0.602948 -0.488787,-1.091735 -1.0917353,-1.091734 z m 0.8188008,1.637601 h 6.7622621 c 0.0089,1.31e-4 0.01781,6.99e-4 0.02666,0.0017 0.0089,7.94e-4 0.01784,0.002 0.02666,0.0037 0.0088,0.0017 0.01752,0.0038 0.02612,0.0064 0.0085,0.0026 0.01686,0.0057 0.02506,0.0091 0.0082,0.0035 0.01618,0.0074 0.02398,0.01173 0.008,0.0041 0.01586,0.0085 0.02346,0.01333 0.0074,0.005 0.01448,0.01032 0.02132,0.01599 0.0069,0.0057 0.01345,0.01176 0.01972,0.01812 0.0064,0.0063 0.01241,0.01285 0.01813,0.01972 0.0057,0.007 0.01103,0.01431 0.01599,0.02186 0.005,0.0074 0.0096,0.01506 0.01386,0.02292 0.0041,0.0078 0.0079,0.01581 0.01119,0.02398 0.0035,0.0084 0.0065,0.01691 0.0091,0.02559 0.0025,0.0084 0.0047,0.01696 0.0064,0.02559 0.0018,0.0088 0.0032,0.01771 0.0042,0.02666 7.67e-4,0.0089 0.0011,0.01776 10e-4,0.02666 v 5.439349 c 8.8e-5,0.02393 -0.003,0.04777 -0.0091,0.0709 -0.0063,0.02297 -0.01566,0.04502 -0.02772,0.06557 -0.01187,0.02064 -0.02638,0.03964 -0.04318,0.05651 -0.01684,0.01698 -0.03584,0.03168 -0.05651,0.04371 -0.02058,0.01188 -0.04262,0.02102 -0.06557,0.02719 -0.02313,0.0061 -0.04697,0.0092 -0.0709,0.0091 h -6.762262 c -0.02375,4.1e-5 -0.0474,-0.003 -0.07036,-0.0091 -0.02313,-0.0061 -0.04535,-0.01527 -0.0661,-0.02719 -0.02067,-0.01203 -0.03967,-0.02673 -0.05651,-0.04371 -0.0168,-0.01687 -0.03131,-0.03587 -0.04318,-0.05651 -0.01188,-0.02058 -0.02101,-0.04262 -0.02718,-0.06557 -0.0063,-0.02311 -0.0095,-0.04695 -0.0096,-0.0709 v -5.439349 c 1.22e-4,-0.02377 0.0034,-0.04743 0.0096,-0.07036 0.0061,-0.02313 0.01526,-0.04535 0.02718,-0.0661 0.01187,-0.02064 0.02638,-0.03964 0.04318,-0.05651 0.01687,-0.0168 0.03587,-0.03131 0.05651,-0.04318 0.02075,-0.01192 0.04297,-0.02106 0.0661,-0.02719 0.02293,-0.0063 0.04659,-0.0095 0.07036,-0.0096 z"
       sodipodi:nodetypes="ssssssscsccccccccccccccccccccccccccsccccccccccccc" />
  </g>
</svg>
