<?xml version="1.0" encoding="UTF-8" standalone="no"?>
<!-- Created with Inkscape (http://www.inkscape.org/) -->

<svg
   width="40"
   height="40"
   viewBox="0 0 10.583333 10.583333"
   version="1.1"
   id="svg1432"
   inkscape:version="1.2.2 (b0a8486541, 2022-12-01)"
   sodipodi:docname="window_minimize.svg"
   xmlns:inkscape="http://www.inkscape.org/namespaces/inkscape"
   xmlns:sodipodi="http://sodipodi.sourceforge.net/DTD/sodipodi-0.dtd"
   xmlns="http://www.w3.org/2000/svg"
   xmlns:svg="http://www.w3.org/2000/svg">
  <sodipodi:namedview
     id="namedview1434"
     pagecolor="#505050"
     bordercolor="#eeeeee"
     borderopacity="1"
     inkscape:showpageshadow="0"
     inkscape:pageopacity="0"
     inkscape:pagecheckerboard="0"
     inkscape:deskcolor="#505050"
     inkscape:document-units="mm"
     showgrid="false"
     inkscape:zoom="14.977172"
     inkscape:cx="22.066916"
     inkscape:cy="18.494813"
     inkscape:window-width="1920"
     inkscape:window-height="1050"
     inkscape:window-x="0"
     inkscape:window-y="0"
     inkscape:window-maximized="1"
     inkscape:current-layer="layer1" />
  <defs
     id="defs1429" />
  <g
     inkscape:label="Layer 1"
     inkscape:groupmode="layer"
     id="layer1">
    <path
       id="path950"
       style="fill:#000000;fill-opacity:1;stroke:none;stroke-width:1.08042;stroke-linecap:round;stroke-linejoin:round;paint-order:stroke fill markers"
       d="M 3.491111,1.628645e-8 A 1.0910415,1.0910415 0 0 0 2.400397,1.09123 V 2.400396 H 1.090714 A 1.0910415,1.0910415 0 0 0 1.6465393e-8,3.491627 V 9.49262 A 1.0910415,1.0910415 0 0 0 1.090714,10.583333 H 7.091707 A 1.0910415,1.0910415 0 0 0 8.18242,9.49262 V 8.182937 h 1.309683 a 1.0910415,1.0910415 0 0 0 1.09123,-1.09123 V 1.09123 A 1.0910415,1.0910415 0 0 0 9.492103,1.6286442e-8 Z M 4.309662,1.636587 h 4.36389 a 0.27276037,0.27276037 0 0 1 0.02685,0.0015 0.27276037,0.27276037 0 0 1 0.02685,0.0041 0.27276037,0.27276037 0 0 1 0.02582,0.0062 0.27276037,0.27276037 0 0 1 0.0253,0.0093 0.27276037,0.27276037 0 0 1 0.02375,0.01136 0.27276037,0.27276037 0 0 1 0.02323,0.01343 0.27276037,0.27276037 0 0 1 0.02169,0.01601 0.27276037,0.27276037 0 0 1 0.01963,0.01808 0.27276037,0.27276037 0 0 1 0.01808,0.01963 0.27276037,0.27276037 0 0 1 0.01601,0.02221 0.27276037,0.27276037 0 0 1 0.01394,0.02272 0.27276037,0.27276037 0 0 1 0.01084,0.02376 0.27276037,0.27276037 0 0 1 0.0093,0.02582 0.27276037,0.27276037 0 0 1 0.0062,0.0253 0.27276037,0.27276037 0 0 1 0.0047,0.02685 0.27276037,0.27276037 0 0 1 5.15e-4,0.02685 v 4.363889 a 0.27276037,0.27276037 0 0 1 -0.0088,0.07075 0.27276037,0.27276037 0 0 1 -0.02789,0.06559 0.27276037,0.27276037 0 0 1 -0.04286,0.05629 0.27276037,0.27276037 0 0 1 -0.0568,0.0439 0.27276037,0.27276037 0 0 1 -0.06559,0.02737 0.27276037,0.27276037 0 0 1 -0.07075,0.0088 h -4.36389 a 0.27276037,0.27276037 0 0 1 -0.07024,-0.0088 0.27276037,0.27276037 0 0 1 -0.0661,-0.02737 0.27276037,0.27276037 0 0 1 -0.0568,-0.0439 0.27276037,0.27276037 0 0 1 -0.04286,-0.05629 0.27276037,0.27276037 0 0 1 -0.02737,-0.06559 0.27276037,0.27276037 0 0 1 -0.0093,-0.07075 V 1.909707 a 0.27276037,0.27276037 0 0 1 0.0093,-0.07076 0.27276037,0.27276037 0 0 1 0.02737,-0.06611 0.27276037,0.27276037 0 0 1 0.04286,-0.05629 0.27276037,0.27276037 0 0 1 0.0568,-0.04286 0.27276037,0.27276037 0 0 1 0.0661,-0.02737 0.27276037,0.27276037 0 0 1 0.07024,-0.0098 z M 1.909266,4.036985 h 0.491131 v 3.054722 a 1.0910415,1.0910415 0 0 0 1.090714,1.09123 h 3.054722 v 0.49113 a 0.27276037,0.27276037 0 0 1 -0.0088,0.07075 0.27276037,0.27276037 0 0 1 -0.02788,0.06559 0.27276037,0.27276037 0 0 1 -0.04338,0.05629 0.27276037,0.27276037 0 0 1 -0.05629,0.04389 0.27276037,0.27276037 0 0 1 -0.06559,0.02737 0.27276037,0.27276037 0 0 1 -0.07076,0.0088 H 1.909245 a 0.27276037,0.27276037 0 0 1 -0.07075,-0.0088 0.27276037,0.27276037 0 0 1 -0.06611,-0.02737 0.27276037,0.27276037 0 0 1 -0.05629,-0.04389 0.27276037,0.27276037 0 0 1 -0.04286,-0.05629 0.27276037,0.27276037 0 0 1 -0.02737,-0.06559 0.27276037,0.27276037 0 0 1 -0.0098,-0.07075 V 4.309662 a 0.27276037,0.27276037 0 0 1 0.0098,-0.07024 0.27276037,0.27276037 0 0 1 0.02737,-0.06611 0.27276037,0.27276037 0 0 1 0.04286,-0.05629 0.27276037,0.27276037 0 0 1 0.05629,-0.04338 0.27276037,0.27276037 0 0 1 0.06611,-0.02685 0.27276037,0.27276037 0 0 1 0.07075,-0.0098 z" />
  </g>
</svg>
