<?xml version="1.0" encoding="UTF-8" standalone="no"?>
<!-- Created with Inkscape (http://www.inkscape.org/) -->

<svg
   width="50"
   height="50"
   viewBox="0 0 13.229167 13.229166"
   version="1.1"
   id="svg995"
   inkscape:version="1.2.2 (b0a8486541, 2022-12-01)"
   sodipodi:docname="close.svg"
   xmlns:inkscape="http://www.inkscape.org/namespaces/inkscape"
   xmlns:sodipodi="http://sodipodi.sourceforge.net/DTD/sodipodi-0.dtd"
   xmlns="http://www.w3.org/2000/svg"
   xmlns:svg="http://www.w3.org/2000/svg">
  <sodipodi:namedview
     id="namedview997"
     pagecolor="#505050"
     bordercolor="#eeeeee"
     borderopacity="1"
     inkscape:showpageshadow="0"
     inkscape:pageopacity="0"
     inkscape:pagecheckerboard="0"
     inkscape:deskcolor="#505050"
     inkscape:document-units="px"
     showgrid="false"
     inkscape:zoom="10.59046"
     inkscape:cx="21.434385"
     inkscape:cy="25.494643"
     inkscape:window-width="1920"
     inkscape:window-height="1050"
     inkscape:window-x="0"
     inkscape:window-y="0"
     inkscape:window-maximized="1"
     inkscape:current-layer="layer1" />
  <defs
     id="defs992">
    <inkscape:path-effect
       effect="fillet_chamfer"
       id="path-effect906"
       is_visible="true"
       lpeversion="1"
       nodesatellites_param="F,0,0,1,0,1,0,1 @ F,0,0,1,0,1,0,1 @ F,0,0,1,0,1,0,1 @ F,0,0,1,0,1,0,1"
       unit="px"
       method="auto"
       mode="F"
       radius="1"
       chamfer_steps="1"
       flexible="false"
       use_knot_distance="true"
       apply_no_radius="true"
       apply_with_radius="true"
       only_selected="false"
       hide_knots="false" />
    <inkscape:path-effect
       effect="fillet_chamfer"
       id="path-effect912"
       is_visible="true"
       lpeversion="1"
       nodesatellites_param="F,0,0,1,0,1,0,1 @ F,0,0,1,0,1,0,1 @ F,0,0,1,0,1,0,1 @ F,0,0,1,0,1,0,1"
       unit="px"
       method="auto"
       mode="F"
       radius="1"
       chamfer_steps="1"
       flexible="false"
       use_knot_distance="true"
       apply_no_radius="true"
       apply_with_radius="true"
       only_selected="false"
       hide_knots="false" />
  </defs>
  <g
     inkscape:label="Layer 1"
     inkscape:groupmode="layer"
     id="layer1"
     transform="translate(6.3309195,-111.08471)">
    <path
       style="fill:#000000;fill-opacity:1;stroke-width:0.99985;stroke-linecap:round;stroke-linejoin:round;paint-order:stroke fill markers"
       id="path902"
       width="16.178595"
       height="3.235719"
       x="74.700706"
       y="80.76783"
       inkscape:path-effect="#path-effect906"
       d="m 75.700706,80.76783 h 14.178595 a 1,1 45 0 1 1,1 v 1.235719 a 1,1 135 0 1 -1,1 H 75.700706 a 1,1 45 0 1 -1,-1 V 81.76783 a 1,1 135 0 1 1,-1 z"
       sodipodi:type="rect"
       transform="matrix(0.70160073,0.71257029,-0.70160073,0.71257029,0,0)" />
    <path
       style="fill:#000000;fill-opacity:1;stroke-width:0.99985;stroke-linecap:round;stroke-linejoin:round;paint-order:stroke fill markers"
       id="path908"
       width="16.178595"
       height="3.235719"
       x="74.296394"
       y="-84.40786"
       inkscape:path-effect="#path-effect912"
       d="m 75.296394,-84.40786 h 14.178595 a 1,1 45 0 1 1,1 v 1.235719 a 1,1 135 0 1 -1,1 H 75.296394 a 1,1 45 0 1 -1,-1 v -1.235719 a 1,1 135 0 1 1,-1 z"
       sodipodi:type="rect"
       transform="matrix(-0.70160073,0.71257029,-0.70160073,-0.71257029,0,0)" />
  </g>
</svg>
